<?xml version="1.0" encoding="utf-8"?>
<!-- Generator: Adobe Illustrator 18.1.1, SVG Export Plug-In . SVG Version: 6.00 Build 0)  -->
<svg version="1.1" id="Layer_1" xmlns="http://www.w3.org/2000/svg" xmlns:xlink="http://www.w3.org/1999/xlink" x="0px" y="0px"
	 viewBox="0 0 83 37.3" enable-background="new 0 0 83 37.3" xml:space="preserve">
<g>
	<path fill="#FFFFFF" d="M20.2,19.3h-2.8l1.4-4.3L20.2,19.3z M23.9,23.8l-3.6-10.5h-2.9l-3.6,10.5H16l0.8-2.6h3.9l0.8,2.6H23.9z"/>
	<rect x="1.9" y="26" fill="#FFFFFF" width="2.1" height="10.5"/>
	<g>
		<path fill="#FFFFFF" d="M6.9,28.9h-2v7.6H7v-3.9c0-1.5,0.4-2.2,1.4-2.2c0.4,0,0.8,0.2,1,0.5c0.1,0.3,0.2,0.5,0.2,1.2v4.4h2.1v-4.3
			c0-1.3-0.1-1.8-0.4-2.3c-0.5-0.7-1.2-1.1-2.2-1.1c-0.9,0-1.7,0.4-2.2,1.1V28.9z"/>
		<path fill="#FFFFFF" d="M18.8,31.3c0-1.7-1.2-2.6-3.2-2.6c-2,0-3.2,0.9-3.2,2.4c0,0.6,0.2,1.1,0.7,1.5c0.5,0.4,1,0.6,2.4,0.9
			c1,0.2,1.4,0.5,1.4,0.9c0,0.4-0.5,0.7-1.2,0.7c-0.9,0-1.3-0.4-1.3-1.2h-2.1c0,1.8,1.3,2.8,3.4,2.8c2.1,0,3.3-0.9,3.3-2.5
			c0-1.2-0.7-1.8-2.2-2.2l-1.5-0.4c-0.6-0.2-0.8-0.4-0.8-0.7c0-0.5,0.4-0.7,1-0.7c0.8,0,1.2,0.3,1.2,1.1H18.8z"/>
		<path fill="#FFFFFF" d="M23.6,28.9h-1.2v-1.8h-2.1v1.8h-1.1v1.6h1.1V34c0,1,0.1,1.4,0.4,1.9c0.4,0.6,1,0.8,1.9,0.8
			c0.4,0,0.7,0,1-0.1V35c-0.3,0-0.3,0-0.4,0c-0.6,0-0.8-0.3-0.8-1.1v-3.4h1.2V28.9z"/>
	</g>
	<path fill="#FFFFFF" d="M24.4,28h2.1v-2h-2.1V28z M26.5,28.9h-2.1v7.6h2.1V28.9z"/>
	<g>
		<path fill="#FFFFFF" d="M31.6,28.9h-1.2v-1.8h-2.1v1.8h-1.1v1.6h1.1V34c0,1,0.1,1.4,0.4,1.9c0.4,0.6,1,0.8,1.9,0.8
			c0.4,0,0.7,0,1-0.1V35c-0.3,0-0.3,0-0.4,0c-0.6,0-0.8-0.3-0.8-1.1v-3.4h1.2V28.9z"/>
		<path fill="#FFFFFF" d="M37.4,36.5h2v-7.6h-2.1v3.9c0,0.8-0.1,1.2-0.3,1.6c-0.3,0.4-0.7,0.7-1.1,0.7c-0.4,0-0.8-0.2-1-0.5
			c-0.1-0.3-0.2-0.5-0.2-1.2v-4.4h-2.1v4.3c0,1.3,0.1,1.8,0.4,2.3c0.5,0.7,1.3,1.1,2.2,1.1c0.9,0,1.7-0.4,2.2-1.1V36.5z"/>
		<path fill="#FFFFFF" d="M44.5,28.9h-1.2v-1.8h-2.1v1.8H40v1.6h1.1V34c0,1,0.1,1.4,0.4,1.9c0.4,0.6,1,0.8,1.9,0.8
			c0.4,0,0.7,0,1-0.1V35c-0.3,0-0.3,0-0.4,0c-0.6,0-0.8-0.3-0.8-1.1v-3.4h1.2V28.9z"/>
		<path fill="#FFFFFF" d="M50.3,31.8H47c0.2-1,0.7-1.6,1.7-1.6C49.6,30.3,50.2,30.9,50.3,31.8 M52.4,32.8c0-2.5-1.4-4.1-3.7-4.1
			c-2.3,0-3.8,1.6-3.8,4c0,2.5,1.5,4.1,3.9,4.1c1.9,0,3.2-0.9,3.6-2.5h-2.2c-0.2,0.6-0.7,0.9-1.4,0.9c-1.1,0-1.7-0.6-1.8-1.8h5.4
			C52.4,33.1,52.4,32.9,52.4,32.8"/>
	</g>
	<polygon fill="#FFFFFF" points="0.3,0.6 0.3,2.4 3.7,2.4 3.7,11 5.9,11 5.9,2.4 9.3,2.4 9.3,0.6 	"/>
	<g>
		<path fill="#FFFFFF" d="M22.8,6.4h-3.2c0.2-1,0.7-1.6,1.7-1.6C22.1,4.8,22.7,5.4,22.8,6.4 M24.9,7.4c0-2.5-1.4-4.1-3.7-4.1
			c-2.3,0-3.8,1.6-3.8,4c0,2.5,1.5,4.1,3.9,4.1c1.9,0,3.2-0.9,3.6-2.5h-2.2c-0.2,0.6-0.7,0.9-1.4,0.9c-1.1,0-1.7-0.6-1.8-1.8h5.4
			C24.9,7.7,24.9,7.5,24.9,7.4"/>
	</g>
	<rect x="24.4" y="13.3" fill="#FFFFFF" width="2.1" height="10.5"/>
	<g>
		<path fill="#FFFFFF" d="M32.2,20.3c0,1.4-0.6,2.1-1.7,2.1c-0.7,0-1.1-0.4-1.1-0.9c0-0.6,0.5-0.9,1.8-1.1l0.7-0.1
			C32,20.4,32.1,20.3,32.2,20.3 M34.2,20.5c0-0.6,0-0.9,0-1.1c0-1.4-0.2-2-0.7-2.6C32.9,16.3,32,16,30.9,16c-2,0-3.3,1-3.4,2.6h2.1
			c0-0.8,0.5-1.1,1.3-1.1c0.9,0,1.2,0.5,1.3,1.5c-0.9,0.1-2.2,0.2-2.8,0.4c-1.4,0.3-2.2,1.1-2.2,2.3c0,1.3,1.1,2.3,2.8,2.3
			c1.2,0,2-0.4,2.5-1.3v0.3c0,0.3,0,0.4,0.1,0.9h1.8c-0.2-0.6-0.2-1.4-0.2-2.6V20.5z"/>
		<path fill="#FFFFFF" d="M37.2,16.2h-2v7.6h2.1v-3.9c0-1.5,0.4-2.2,1.4-2.2c0.4,0,0.8,0.2,1,0.5c0.1,0.3,0.2,0.5,0.2,1.2v4.4H42
			v-4.3c0-1.3-0.1-1.8-0.4-2.3c-0.5-0.7-1.2-1.1-2.2-1.1c-0.9,0-1.7,0.4-2.2,1.1V16.2z"/>
	</g>
	<polygon fill="#FFFFFF" points="47.4,23.8 49.6,23.8 49.6,15.1 53,15.1 53,13.3 44.1,13.3 44.1,15.1 47.4,15.1 	"/>
	<g>
		<path fill="#FFFFFF" d="M56.4,23.8h2v-7.6h-2.1v3.9c0,0.8-0.1,1.2-0.3,1.6c-0.3,0.4-0.7,0.7-1.1,0.7c-0.4,0-0.8-0.2-1-0.5
			c-0.1-0.3-0.2-0.5-0.2-1.2v-4.4h-2.1v4.3c0,1.3,0.1,1.8,0.4,2.3c0.5,0.7,1.3,1.1,2.2,1.1c0.9,0,1.7-0.4,2.2-1.1V23.8z"/>
		<path fill="#FFFFFF" d="M59.4,23.8h2.1v-3.4c0-1.9,0.6-2.6,2-2.6c0.2,0,0.4,0,0.6,0.1v-1.8C63.9,16,63.7,16,63.5,16
			c-0.9,0-1.7,0.4-2.1,1.2v-1h-2V23.8z"/>
	</g>
	<path fill="#FFFFFF" d="M64.9,15.3H67v-2h-2.1V15.3z M67,16.2h-2.1v7.6H67V16.2z"/>
	<g>
		<path fill="#FFFFFF" d="M70,16.2h-2v4.2v2.4v1h2.1v-3.9c0-1.5,0.4-2.2,1.4-2.2c0.4,0,0.8,0.2,1,0.5c0.1,0.3,0.2,0.5,0.2,1.2v4.4
			h2.1v-4.3c0-1.3-0.1-1.8-0.4-2.3c-0.5-0.7-1.2-1.1-2.2-1.1c-0.9,0-1.7,0.4-2.2,1.1V16.2z"/>
		<path fill="#FFFFFF" d="M80.7,19.8c0,1.2-0.6,2-1.5,2c-0.9,0-1.5-0.8-1.5-2.1c0-1.2,0.6-2.1,1.5-2.1
			C80.1,17.7,80.7,18.5,80.7,19.8 M82.7,22.2v-6h-1.9v0.9c-0.6-0.8-1.2-1.1-2.1-1.1c-1.9,0-3.2,1.6-3.2,3.8c0,2.2,1.2,3.7,3.1,3.7
			c1,0,1.6-0.3,2.1-1.1v0.8c0,1.4-0.5,2-1.5,2c-0.8,0-1.3-0.4-1.3-1h-2.1c0.1,1.5,1.4,2.4,3.4,2.4c1.8,0,2.9-0.7,3.3-2.2
			C82.7,23.9,82.7,23.7,82.7,22.2"/>
		<path fill="#FFFFFF" d="M9.9,11H12V7.3c0-1.6,0.5-2.4,1.4-2.4c0.9,0,1.2,0.5,1.2,1.7V11h2.1V6.9V6.4c0-1.2-0.2-1.8-0.6-2.3
			c-0.4-0.5-1.2-0.8-2-0.8c-0.8,0-1.6,0.4-2.1,1.1V0.6H9.9V11z"/>
	</g>
</g>
</svg>
